<svg width="189" height="42" viewBox="0 0 189 42" fill="none" xmlns="http://www.w3.org/2000/svg">
<g id="logo">
<path id="Fill 1" fill-rule="evenodd" clip-rule="evenodd" d="M38.939 33.2129H43.684V23.7909H56.476V19.0469H43.684V15.4819H59.09V10.7379H38.939V33.2129Z" fill="#040505"/>
<path id="Fill 2" fill-rule="evenodd" clip-rule="evenodd" d="M67.8879 23.7902L70.9369 16.4832L74.0969 23.7902H67.8879ZM68.1909 10.7382L58.7729 33.2132H63.9549L66.3959 27.3662H75.6439L78.1729 33.2132H83.3559L73.6699 10.7382H68.1909Z" fill="#040505"/>
<path id="Fill 3" fill-rule="evenodd" clip-rule="evenodd" d="M103.533 24.7505L92.2885 10.7385H86.9355V33.2125H91.6785V19.1875L102.923 33.2125H108.276V10.7385H103.533V24.7505Z" fill="#040505"/>
<path id="Fill 4" fill-rule="evenodd" clip-rule="evenodd" d="M113.542 15.482H121.246V33.213H125.989V15.482H133.693V10.738H113.542V15.482Z" fill="#040505"/>
<g id="Group 9">
<mask id="mask0" mask-type="alpha" maskUnits="userSpaceOnUse" x="0" y="1" width="189" height="41">
<path id="Clip 6" fill-rule="evenodd" clip-rule="evenodd" d="M0.000488281 1.00049H188.887V41.5741H0.000488281V1.00049Z" fill="white"/>
</mask>
<g mask="url(#mask0)">
<path id="Fill 5" fill-rule="evenodd" clip-rule="evenodd" d="M142.144 28.4821H152.806V15.4941H142.144V28.4821ZM153.994 10.7511H140.952C139.97 10.7511 139.135 11.0971 138.448 11.7851C137.747 12.4841 137.398 13.3231 137.398 14.3061V29.6711C137.398 30.6531 137.747 31.4881 138.448 32.1781C139.135 32.8761 139.97 33.2261 140.952 33.2261H153.994C154.977 33.2261 155.818 32.8761 156.515 32.1781C157.205 31.4881 157.549 30.6531 157.549 29.6711V14.3061C157.549 13.3231 157.205 12.4841 156.515 11.7851C155.818 11.0971 154.977 10.7511 153.994 10.7511Z" fill="#040505"/>
<path id="Fill 7" fill-rule="evenodd" clip-rule="evenodd" d="M183.973 10.7383L175.845 21.1173L167.717 10.7383H162.803V33.2133H167.546V18.2013L175.845 28.8083L184.143 18.2013V33.2133H188.887V10.7383H183.973Z" fill="#040505"/>
<path id="Fill 8" fill-rule="evenodd" clip-rule="evenodd" d="M14.4525 14.9825L21.8555 10.7045V19.2525L14.4525 14.9825ZM21.8555 33.2255L12.1015 38.8625L2.34849 33.2315V23.3165L12.1015 28.9475L21.8555 23.3165V33.2255ZM2.34849 10.7095L9.75149 14.9835L2.34849 19.2575V10.7095ZM13.2755 17.0145L20.6795 21.2845L13.2755 25.5585V17.0145ZM10.9285 25.5585L3.52949 21.2875L10.9285 17.0155V25.5585ZM20.6865 8.66749L12.1035 13.6275L12.1015 13.6265L12.0995 13.6275L3.51349 8.67049L12.1015 3.71149L20.6865 8.66749ZM0.000488281 7.98649V20.6125V21.9615V34.5875L12.1015 41.5745L24.2035 34.5815V21.9615V20.6075V7.98649L12.1015 1.00049L0.000488281 7.98649Z" fill="#040505"/>
</g>
</g>
</g>
</svg>
